<?xml version="1.0" encoding="UTF-8"?>
<svg width="200" height="200" viewBox="0 0 200 200" fill="none" xmlns="http://www.w3.org/2000/svg">
  <defs>
  <linearGradient id="bgGradient" x1="0%" y1="0%" x2="100%" y2="100%">
    <stop offset="0%" style="stop-color:#3B82F6;stop-opacity:1" />
    <stop offset="50%" style="stop-color:#2563EB;stop-opacity:1" />
    <stop offset="100%" style="stop-color:#1E40AF;stop-opacity:1" />
  </linearGradient>
  <linearGradient id="orangeGradient" x1="0%" y1="0%" x2="100%" y2="100%">
    <stop offset="0%" style="stop-color:#FB8104;stop-opacity:1" />
    <stop offset="50%" style="stop-color:#FEA901;stop-opacity:1" />
    <stop offset="100%" style="stop-color:#C4260E;stop-opacity:1" />
  </linearGradient>
  <linearGradient id="blueGradient1" x1="0%" y1="0%" x2="100%" y2="100%">
    <stop offset="0%" style="stop-color:#08254aff;stop-opacity:1" />
    <stop offset="100%" style="stop-color:#6595d4ff;stop-opacity:1" />
  </linearGradient>
  <linearGradient id="blueGradient2" x1="0%" y1="0%" x2="100%" y2="100%">
    <stop offset="0%" style="stop-color:#02193C;stop-opacity:1" />
    <stop offset="100%" style="stop-color:#134991;stop-opacity:1" />
  </linearGradient>
  <filter id="capShadow" x="-50%" y="-50%" width="200%" height="200%">
    <feDropShadow dx="2" dy="3" stdDeviation="3" flood-color="#000000" flood-opacity="0.3" />
  </filter>
  <filter id="calendarShadow" x="-50%" y="-50%" width="200%" height="200%">
    <feDropShadow dx="3" dy="4" stdDeviation="4" flood-color="#000000" flood-opacity="0.25" />
  </filter>
  </defs>
  <rect x="10" y="10" width="180" height="180" rx="45" fill="url(#bgGradient)" />
  <path d="M 10 110 Q 100 95 190 110 L 190 190 Q 190 190 145 190 L 55 190 Q 10 190 10 145 Z" fill="url(#orangeGradient)" />

  <g transform="translate(105, 55) rotate(8)" filter="url(#calendarShadow)">
  <rect x="0" y="5" width="65" height="62" rx="5" fill="white" opacity="0.98" />
  <path d="M 5 5 Q 0 5 0 10 L 0 19.5 L 65 19.5 L 65 10 Q 65 5 60 5 Z" fill="#EF4444" />
  <rect x="0" y="20" width="65" height="5" fill="#DC2626" />
  <circle cx="16" cy="5" r="3" fill="#B91C1C" />
  <circle cx="49" cy="5" r="3" fill="#B91C1C" />
  <rect x="7" y="31" width="10" height="8" rx="1.5" fill="#3B82F6" />
  <rect x="20" y="31" width="10" height="8" rx="1.5" fill="#94A3B8" />
  <rect x="33" y="31" width="10" height="8" rx="1.5" fill="#94A3B8" />
  <rect x="46" y="31" width="10" height="8" rx="1.5" fill="#94A3B8" />
  <rect x="7" y="42" width="10" height="8" rx="1.5" fill="#94A3B8" />
  <rect x="20" y="42" width="10" height="8" rx="1.5" fill="#94A3B8" />
  <rect x="33" y="42" width="10" height="8" rx="1.5" fill="#94A3B8" />
  <rect x="7" y="53" width="10" height="8" rx="1.5" fill="#94A3B8" />
  <rect x="20" y="53" width="10" height="8" rx="1.5" fill="#94A3B8" />
  </g>

  <g transform="translate(38, -35) rotate(15)" filter="url(#calendarShadow)">
  <circle cx="153" cy="125" r="14" fill="#10B981" />
  <path d="M 148 126 L 151 129 L 158 121" stroke="white" stroke-width="3" stroke-linecap="round" stroke-linejoin="round" fill="none" />
  </g>

  <g transform="translate(13, 70) rotate(-8)">
  <path d="M 50 45 L 73 35.87 L 73 53.87 L 50 63 Z" fill="#092757ff" stroke="#0F172A" stroke-width="0.5" filter="url(#capShadow)" />
  <path d="M 50 45 L 27 35.87 L 27 53.87 L 50 63 Z" fill="#2B70C8ff" stroke="#0F172A" stroke-width="0.5" filter="url(#capShadow)" />
  <path d="M 50 12.75 L 93.5 30 L 50 47.25 L 6.5 30 Z" fill="#FFFFFF" filter="url(#capShadow)" />
  <line x1="50" y1="12.75" x2="50" y2="47.25" stroke="#94A3B8" stroke-width="1.5" opacity="0.3" />
  <line x1="6.5" y1="30" x2="93.5" y2="30" stroke="#94A3B8" stroke-width="1.5" opacity="0.3" />
  <path d="M 50 12.75 L 93.5 30 L 50 47.25 L 6.5 30 Z" fill="#FFFFFF00" stroke="url(#blueGradient2)" stroke-width="2" stroke-linecap="round" stroke-linejoin="round" />
  <path d="M 50 30 L 28 39 L 28 55" stroke="url(#blueGradient1)" stroke-width="2" stroke-linecap="round" stroke-linejoin="round" fill="none" />
  <ellipse cx="50" cy="30" rx="5" ry="4" fill="#031e4eff" />
  <ellipse cx="50" cy="30" rx="3.5" ry="2.5" fill="#05326A" />
  <circle cx="28" cy="57" r="3" fill="#FCD34D" stroke="#FBBF24" stroke-width="1" />
  <path d="M 28 60.5 L 22 72 L 34 72 Z" fill="#FCD34D" stroke="#FBBF24" stroke-width="1" />
  </g>
</svg>